<?xml version="1.0" encoding="UTF-8"?>
<svg xmlns="http://www.w3.org/2000/svg" xmlns:xlink="http://www.w3.org/1999/xlink" width="256pt" height="256pt" viewBox="0 0 256 256" version="1.1">
<g id="surface14375064">
<path style=" stroke:none;fill-rule:evenodd;fill:rgb(100%,100%,100%);fill-opacity:1;" d="M 32.78125 86.03125 C 16.125 105.59375 0 129.21875 0 147.96875 C 0 158.8125 9.125 174.0625 31.40625 174.0625 C 43.4375 174.0625 55.40625 169.21875 64.78125 165.46875 C 80.53125 159.15625 254.90625 83.4375 254.90625 83.4375 C 256.59375 82.59375 256.28125 81.5625 254.1875 82.09375 C 253.34375 82.28125 64.34375 133.5 64.34375 133.5 C 60.6875 134.53125 56.96875 135.09375 53.34375 135.09375 C 37 135.09375 26 127.25 26 110.125 C 26 103.46875 28.09375 95.4375 32.78125 86.03125 Z M 32.78125 86.03125 "/>
</g>
</svg>
